ply
format ascii 1.0
comment Created by Blender 4.3.2 - www.blender.org
element vertex 524
property float x
property float y
property float z
property float nx
property float ny
property float nz
property float s
property float t
element face 244
property list uchar uint vertex_indices
end_header
-23.606018 -28.787273 0.000000 -0.717959 0.696085 0.000000 0.000000 0.000000
-23.241434 -52.442665 0.000000 -0.696085 -0.717959 0.000000 0.000000 0.000000
-23.241434 -52.442665 9.330084 -0.568354 -0.586214 0.577344 0.000000 0.000000
-23.606018 -28.787273 9.330084 -0.586208 0.568348 0.577356 0.000000 0.000000
24.081947 -51.707954 0.000000 0.717961 -0.696083 0.000000 0.000000 0.000000
24.081947 -51.707954 9.330084 0.586210 -0.568347 0.577356 0.000000 0.000000
23.717205 -28.052565 0.000000 0.696083 0.717961 0.000000 0.000000 0.000000
23.717205 -28.052565 9.330084 0.568352 0.586216 0.577345 0.000000 0.000000
-24.882143 26.349274 0.000000 -0.718491 0.695536 0.000000 0.000000 0.000000
-24.012114 -26.972765 0.000000 -0.695536 -0.718491 0.000000 0.000000 0.000000
-24.012114 -26.972765 73.257652 -0.567899 -0.586641 0.577359 0.000000 0.000000
-24.882143 26.349274 73.257652 -0.586650 0.567907 0.577342 0.000000 0.000000
15.271954 -26.338268 0.000000 0.718493 -0.695534 0.000000 0.000000 0.000000
15.271954 -26.338268 73.257652 0.586652 -0.567905 0.577341 0.000000 0.000000
14.401629 26.983767 0.000000 0.695534 0.718493 0.000000 0.000000 0.000000
14.401629 26.983767 73.257652 0.567897 0.586643 0.577359 0.000000 0.000000
-46.778191 41.210537 0.000000 0.696754 0.717310 0.000000 0.000000 0.000000
-75.942604 40.821171 0.000000 -0.715437 0.698677 0.000000 0.000000 0.000000
-75.942604 40.821171 7.370959 -0.584073 0.570390 0.577507 0.000000 0.000000
-46.778191 41.210537 7.370959 0.568836 0.585618 0.577474 0.000000 0.000000
-75.843254 31.225430 0.000000 -0.697321 -0.716759 0.000000 0.000000 0.000000
-75.843254 31.225430 7.370959 -0.569535 -0.585410 0.576996 0.000000 0.000000
-46.629074 31.726116 0.000000 0.718628 -0.695395 0.000000 0.000000 0.000000
-46.629074 31.726116 7.370959 0.586720 -0.567751 0.577424 0.000000 0.000000
47.096878 -4.920258 0.000000 -0.708545 0.705666 0.000000 0.000000 0.000000
47.121819 -16.798048 0.000000 -0.705579 -0.708631 0.000000 0.000000 0.000000
47.121819 -16.798048 7.720333 -0.576106 -0.578598 0.577344 0.000000 0.000000
47.096878 -4.920258 7.720333 -0.578528 0.576177 0.577344 0.000000 0.000000
92.530487 -16.697414 0.000000 0.708634 -0.705576 0.000000 0.000000 0.000000
92.530487 -16.697414 7.720333 0.578594 -0.576098 0.577356 0.000000 0.000000
92.505470 -4.830757 0.000000 0.705663 0.708547 0.000000 0.000000 0.000000
92.505470 -4.830757 7.720333 0.576168 0.578523 0.577357 0.000000 0.000000
92.505470 -4.830757 0.000000 0.707523 -0.706690 0.000000 0.000000 0.000000
92.521782 15.752217 0.000000 0.706605 0.707608 0.000000 0.000000 0.000000
92.521782 15.752217 10.203023 0.577019 0.577838 0.577193 0.000000 0.000000
92.505470 -4.830757 10.203023 0.577618 -0.576938 0.577495 0.000000 0.000000
46.989002 15.651584 0.000000 -0.709737 0.704467 0.000000 0.000000 0.000000
46.989002 15.651584 10.203023 -0.579578 0.575273 0.577192 0.000000 0.000000
47.096878 -4.920258 0.000000 -0.704551 -0.709653 0.000000 0.000000 0.000000
47.096878 -4.920258 10.203023 -0.575178 -0.579343 0.577522 0.000000 0.000000
127.321754 26.873571 0.000000 -0.709176 0.705031 0.000000 0.000000 0.000000
127.296967 22.576639 0.000000 -0.710067 0.704135 0.000000 0.000000 0.000000
127.296967 22.576639 10.507399 -0.579239 0.574400 0.578400 0.000000 0.000000
127.321754 26.873571 10.507399 -0.578580 0.575198 0.578266 0.000000 0.000000
97.386589 22.153152 0.000000 -0.717095 0.696976 0.000000 0.000000 0.000000
97.386589 22.153152 10.507399 -0.585509 0.569082 0.577343 0.000000 0.000000
97.660347 3.006204 0.000000 -0.696925 -0.717144 0.000000 0.000000 0.000000
97.660347 3.006204 10.507399 -0.569037 -0.585545 0.577350 0.000000 0.000000
142.090927 3.641474 0.000000 0.717969 -0.696075 0.000000 0.000000 0.000000
142.090927 3.641474 10.507399 0.586282 -0.568404 0.577227 0.000000 0.000000
141.700928 27.040823 0.000000 0.697032 0.717040 0.000000 0.000000 0.000000
141.700928 27.040823 10.507399 0.568994 0.585327 0.577614 0.000000 0.000000
46.989002 15.651584 0.000000 -0.705605 -0.708605 0.000000 0.000000 0.000000
92.521782 15.752217 0.000000 0.708608 -0.705603 0.000000 0.000000 0.000000
92.521782 15.752217 13.448992 0.578571 -0.576118 0.577359 0.000000 0.000000
46.989002 15.651584 13.448992 -0.576129 -0.578579 0.577341 0.000000 0.000000
92.496758 28.019625 0.000000 0.705603 0.708608 0.000000 0.000000 0.000000
92.496758 28.019625 13.448992 0.576127 0.578580 0.577341 0.000000 0.000000
46.964058 27.918991 0.000000 -0.708606 0.705605 0.000000 0.000000 0.000000
46.964058 27.918991 13.448992 -0.578569 0.576119 0.577359 0.000000 0.000000
-45.609772 18.668333 0.000000 0.719083 -0.694924 0.000000 0.000000 0.000000
-45.833454 31.737242 0.000000 0.694924 0.719083 0.000000 0.000000 0.000000
-45.833454 31.737242 7.664264 0.567402 0.587127 0.577353 0.000000 0.000000
-45.609772 18.668333 7.664264 0.587130 -0.567405 0.577347 0.000000 0.000000
-75.843254 31.225430 0.000000 -0.719081 0.694926 0.000000 0.000000 0.000000
-75.843254 31.225430 7.664264 -0.587129 0.567406 0.577347 0.000000 0.000000
-75.619629 18.156519 0.000000 -0.694926 -0.719081 0.000000 0.000000 0.000000
-75.619629 18.156519 7.664264 -0.567403 -0.587126 0.577353 0.000000 0.000000
21.296965 41.477581 0.000000 0.717171 0.696897 0.000000 0.000000 0.000000
8.666512 41.889439 0.000000 -0.693054 0.720886 0.000000 0.000000 0.000000
8.666512 41.889439 13.953424 -0.566531 0.589283 0.576011 0.000000 0.000000
21.296965 41.477581 13.953424 0.584583 0.568058 0.579287 0.000000 0.000000
8.658226 40.664925 0.000000 -0.706740 0.707474 0.000000 0.000000 0.000000
8.658226 40.664925 13.953424 -0.576722 0.577321 0.578007 0.000000 0.000000
-24.368258 40.475716 0.000000 -0.710821 0.703373 0.000000 0.000000 0.000000
-24.368258 40.475716 13.953424 -0.580359 0.574278 0.577399 0.000000 0.000000
-24.310284 28.408684 0.000000 -0.702376 -0.711807 0.000000 0.000000 0.000000
-24.310284 28.408684 13.953424 -0.573584 -0.581286 0.577156 0.000000 0.000000
21.346729 28.798292 0.000000 0.711498 -0.702689 0.000000 0.000000 0.000000
21.346729 28.798292 13.953424 0.580814 -0.573623 0.577592 0.000000 0.000000
74.644638 64.598999 0.000000 -0.719743 0.694241 0.000000 0.000000 0.000000
75.216827 32.327484 0.000000 -0.694884 -0.719122 0.000000 0.000000 0.000000
75.216827 32.327484 13.352274 -0.567340 -0.587130 0.577412 0.000000 0.000000
74.644638 64.598999 13.352274 -0.587651 0.566830 0.577382 0.000000 0.000000
92.040871 32.605984 0.000000 0.717154 -0.696915 0.000000 0.000000 0.000000
92.040871 32.605984 13.352274 0.585434 -0.568913 0.577585 0.000000 0.000000
91.650932 64.910896 0.000000 0.696275 0.717776 0.000000 0.000000 0.000000
91.650932 64.910896 13.352274 0.568667 0.586227 0.577023 0.000000 0.000000
81.325829 -51.484894 0.000000 -0.704073 -0.710128 0.000000 0.000000 0.000000
93.566917 -51.473610 0.000000 0.711168 -0.703022 0.000000 0.000000 0.000000
93.566917 -51.473610 13.739188 0.580920 -0.574266 0.576846 0.000000 0.000000
81.325829 -51.484894 13.739188 -0.574698 -0.579640 0.577702 0.000000 0.000000
93.243294 -20.938677 0.000000 0.699427 0.714704 0.000000 0.000000 0.000000
93.243294 -20.938677 13.739188 0.571091 0.583564 0.577329 0.000000 0.000000
81.093422 -21.072411 0.000000 -0.713669 0.700483 0.000000 0.000000 0.000000
81.093422 -21.072411 13.739188 -0.582620 0.571855 0.577526 0.000000 0.000000
67.999039 -51.585220 0.000000 -0.701724 -0.712449 0.000000 0.000000 0.000000
81.325829 -51.484894 0.000000 0.712450 -0.701723 0.000000 0.000000 0.000000
81.325829 -51.484894 14.172057 0.581716 -0.572958 0.577344 0.000000 0.000000
67.999039 -51.585220 14.172057 -0.572952 -0.581709 0.577356 0.000000 0.000000
81.093422 -21.072411 0.000000 0.701723 0.712450 0.000000 0.000000 0.000000
81.093422 -21.072411 14.172057 0.572952 0.581710 0.577356 0.000000 0.000000
67.766685 -21.172737 0.000000 -0.712449 0.701724 0.000000 0.000000 0.000000
67.766685 -21.172737 14.172057 -0.581715 0.572958 0.577344 0.000000 0.000000
67.999039 -51.585220 0.000000 0.714672 -0.699460 0.000000 0.000000 0.000000
67.924355 -41.833633 0.000000 0.701294 0.712872 0.000000 0.000000 0.000000
67.924355 -41.833633 4.560910 0.572632 0.582085 0.577295 0.000000 0.000000
67.999039 -51.585220 4.560910 0.583363 -0.570946 0.577675 0.000000 0.000000
58.973534 -41.911636 0.000000 -0.708059 0.706153 0.000000 0.000000 0.000000
58.973534 -41.911636 4.560910 -0.577739 0.576185 0.578125 0.000000 0.000000
58.956982 -44.661228 0.000000 -0.651600 -0.758563 0.000000 0.000000 0.000000
58.956982 -44.661228 4.560910 -0.535725 -0.623666 0.569244 0.000000 0.000000
59.868637 -44.516506 0.000000 -0.644470 -0.764630 0.000000 0.000000 0.000000
59.868637 -44.516506 4.560910 -0.529468 -0.628187 0.570127 0.000000 0.000000
59.959862 -51.696609 0.000000 -0.697655 -0.716434 0.000000 0.000000 0.000000
59.959862 -51.696609 4.560910 -0.569662 -0.584997 0.577290 0.000000 0.000000
8.666512 41.889439 0.000000 -0.711943 -0.702237 0.000000 0.000000 0.000000
21.296965 41.477581 0.000000 0.697417 -0.716666 0.000000 0.000000 0.000000
21.296965 41.477581 13.149912 0.570404 -0.586147 0.575388 0.000000 0.000000
8.666512 41.889439 13.149912 -0.579912 -0.572006 0.580095 0.000000 0.000000
21.172581 64.620903 0.000000 0.695990 0.718052 0.000000 0.000000 0.000000
21.172581 64.620903 13.149912 0.568795 0.586825 0.576288 0.000000 0.000000
8.243814 64.286919 0.000000 -0.722732 0.691129 0.000000 0.000000 0.000000
8.243814 64.286919 13.149912 -0.589922 0.564126 0.577715 0.000000 0.000000
-24.368258 40.475716 0.000000 -0.706150 -0.708062 0.000000 0.000000 0.000000
-17.978441 40.420036 0.000000 0.705779 -0.708432 0.000000 0.000000 0.000000
-17.978441 40.420036 12.371335 0.576621 -0.578789 0.576638 0.000000 0.000000
-24.368258 40.475716 12.371335 -0.576039 -0.577598 0.578411 0.000000 0.000000
-18.094408 63.797131 0.000000 0.699901 0.714240 0.000000 0.000000 0.000000
-18.094408 63.797131 12.371335 0.571734 0.583447 0.576811 0.000000 0.000000
-24.633383 63.696964 0.000000 -0.716495 0.697592 0.000000 0.000000 0.000000
-24.633383 63.696964 12.371335 -0.584912 0.569481 0.577554 0.000000 0.000000
-38.440643 63.908531 0.000000 -0.710914 0.703279 0.000000 0.000000 0.000000
-38.382751 41.232750 0.000000 -0.709087 -0.705121 0.000000 0.000000 0.000000
-38.382751 41.232750 8.033870 -0.578685 -0.575448 0.577913 0.000000 0.000000
-38.440643 63.908531 8.033870 -0.580309 0.574077 0.577648 0.000000 0.000000
-30.194506 41.165920 0.000000 0.706532 -0.707681 0.000000 0.000000 0.000000
-30.194506 41.165920 8.033870 0.577263 -0.578202 0.576585 0.000000 0.000000
-30.343588 63.975285 0.000000 0.701862 0.712313 0.000000 0.000000 0.000000
-30.343588 63.975285 8.033870 0.573112 0.581646 0.577261 0.000000 0.000000
-38.440643 63.908531 0.000000 0.705237 0.708972 0.000000 0.000000 0.000000
-50.648384 63.875214 0.000000 -0.708971 0.705237 0.000000 0.000000 0.000000
-50.648384 63.875214 13.586055 -0.578868 0.575819 0.577360 0.000000 0.000000
-38.440643 63.908531 13.586055 0.575828 0.578878 0.577341 0.000000 0.000000
-50.590534 41.199432 0.000000 -0.705238 -0.708971 0.000000 0.000000 0.000000
-50.590534 41.199432 13.586055 -0.575829 -0.578877 0.577341 0.000000 0.000000
-38.382751 41.232750 0.000000 0.708972 -0.705237 0.000000 0.000000 0.000000
-38.382751 41.232750 13.586055 0.578869 -0.575819 0.577359 0.000000 0.000000
127.321754 26.873571 0.000000 -0.698450 -0.715659 0.000000 0.000000 0.000000
141.700928 27.040823 0.000000 0.715451 -0.698662 0.000000 0.000000 0.000000
141.700928 27.040823 22.656519 0.584176 -0.570468 0.577325 0.000000 0.000000
127.321754 26.873571 22.656519 -0.570254 -0.584305 0.577407 0.000000 0.000000
141.227753 66.102821 0.000000 0.698512 0.715598 0.000000 0.000000 0.000000
141.227753 66.102821 22.656519 0.570331 0.584282 0.577354 0.000000 0.000000
95.902504 65.556602 0.000000 -0.715572 0.698538 0.000000 0.000000 0.000000
95.902504 65.556602 22.656519 -0.584262 0.570354 0.577351 0.000000 0.000000
96.325645 30.413044 0.000000 -0.698469 -0.715641 0.000000 0.000000 0.000000
96.325645 30.413044 22.656519 -0.570303 -0.584324 0.577340 0.000000 0.000000
127.271957 30.792017 0.000000 -0.698230 -0.715874 0.000000 0.000000 0.000000
127.271957 30.792017 22.656519 -0.570090 -0.584496 0.577374 0.000000 0.000000
74.644638 64.598999 0.000000 0.694456 0.719535 0.000000 0.000000 0.000000
45.770393 64.086685 0.000000 -0.719534 0.694457 0.000000 0.000000 0.000000
45.770393 64.086685 18.453144 -0.587497 0.567022 0.577351 0.000000 0.000000
74.644638 64.598999 18.453144 0.567021 0.587498 0.577350 0.000000 0.000000
46.342453 31.815168 0.000000 -0.694457 -0.719534 0.000000 0.000000 0.000000
46.342453 31.815168 18.453144 -0.567022 -0.587497 0.577349 0.000000 0.000000
75.216827 32.327484 0.000000 0.719535 -0.694456 0.000000 0.000000 0.000000
75.216827 32.327484 18.453144 0.587498 -0.567020 0.577351 0.000000 0.000000
141.999832 0.079249 0.000000 0.687293 0.726381 0.000000 0.000000 0.000000
97.494644 -0.867716 0.000000 -0.720930 0.693008 0.000000 0.000000 0.000000
97.494644 -0.867716 48.270763 -0.588555 0.565760 0.577510 0.000000 0.000000
141.999832 0.079249 48.270763 0.560847 0.592743 0.578019 0.000000 0.000000
98.390404 -50.037521 0.000000 -0.691882 -0.722010 0.000000 0.000000 0.000000
98.390404 -50.037521 48.270763 -0.565077 -0.589683 0.577028 0.000000 0.000000
140.848801 -49.001537 0.000000 0.364527 -0.931193 0.000000 0.000000 0.000000
140.848801 -49.001537 48.270763 0.280799 -0.717308 0.637668 0.000000 0.000000
143.301956 -46.841892 0.000000 0.897968 -0.440061 0.000000 0.000000 0.000000
143.301956 -46.841892 48.270763 0.697241 -0.341692 0.630160 0.000000 0.000000
143.492508 -43.791733 0.000000 0.999899 -0.014190 0.000000 0.000000 0.000000
143.492508 -43.791733 48.270763 0.717558 -0.010183 0.696424 0.000000 0.000000
-36.775059 17.822252 0.000000 0.694789 0.719213 0.000000 0.000000 0.000000
-76.067177 17.065592 0.000000 -0.723788 0.690023 0.000000 0.000000 0.000000
-76.067177 17.065592 16.884329 -0.591217 0.563636 0.576868 0.000000 0.000000
-36.775059 17.822252 16.884329 0.567395 0.587341 0.577143 0.000000 0.000000
-74.103706 -51.807796 0.000000 -0.689954 -0.723854 0.000000 0.000000 0.000000
-74.103706 -51.807796 16.884329 -0.563113 -0.590781 0.577825 0.000000 0.000000
-29.473858 -50.939831 0.000000 0.719389 -0.694608 0.000000 0.000000 0.000000
-29.473858 -50.939831 16.884329 0.587276 -0.567046 0.577551 0.000000 0.000000
-29.863281 -25.981998 0.000000 0.696469 0.717587 0.000000 0.000000 0.000000
-29.863281 -25.981998 16.884329 0.568630 0.585872 0.577420 0.000000 0.000000
-36.103977 -26.071026 0.000000 0.696582 0.717478 0.000000 0.000000 0.000000
-36.103977 -26.071026 16.884329 0.568730 0.585791 0.577404 0.000000 0.000000
14.567403 17.666327 0.000000 -0.722881 0.690972 0.000000 0.000000 0.000000
14.774615 8.504732 0.000000 -0.690966 -0.722887 0.000000 0.000000 0.000000
14.774615 8.504732 4.612159 -0.564170 -0.590232 0.577355 0.000000 0.000000
14.567403 17.666327 4.612159 -0.590233 0.564179 0.577345 0.000000 0.000000
26.137100 8.760799 0.000000 0.722575 -0.691293 0.000000 0.000000 0.000000
26.137100 8.760799 4.612159 0.589958 -0.564417 0.577393 0.000000 0.000000
25.938162 17.922394 0.000000 0.691299 0.722569 0.000000 0.000000 0.000000
25.938162 17.922394 4.612159 0.564463 0.589997 0.577308 0.000000 0.000000
-18.094408 63.797131 0.000000 -0.715385 0.698730 0.000000 0.000000 0.000000
-17.978441 40.420036 0.000000 -0.702085 -0.712093 0.000000 0.000000 0.000000
-17.978441 40.420036 17.424995 -0.573360 -0.581533 0.577129 0.000000 0.000000
-18.094408 63.797131 17.424995 -0.583747 0.570156 0.578067 0.000000 0.000000
8.658226 40.664925 0.000000 0.716496 -0.697592 0.000000 0.000000 0.000000
8.658226 40.664925 17.424995 0.585237 -0.569796 0.576915 0.000000 0.000000
8.243814 64.286919 0.000000 0.694216 0.719767 0.000000 0.000000 0.000000
8.243814 64.286919 17.424995 0.566852 0.587715 0.577295 0.000000 0.000000
-163.215836 -2.064781 0.300000 0.000000 0.000000 1.000000 0.000000 1.000000
-97.238289 -1.064132 0.300000 0.000000 0.000000 1.000000 0.500000 1.000000
-97.296516 2.935445 0.300000 0.000000 0.000000 1.000000 0.500000 0.000000
-163.276505 1.934759 0.300000 0.000000 0.000000 1.000000 0.000000 0.000000
-85.280289 -0.897323 0.300000 0.000000 0.000000 1.000000 1.000000 1.000000
-85.336075 3.102288 0.300000 0.000000 0.000000 1.000000 1.000000 0.000000
-30.585861 118.298103 0.300000 0.000000 0.000000 1.000000 0.000000 1.000000
-30.005827 92.872635 0.300000 0.000000 0.000000 1.000000 0.111111 1.000000
-26.006872 92.964050 0.300000 0.000000 0.000000 1.000000 0.111111 0.000000
-26.586903 118.389336 0.300000 0.000000 0.000000 1.000000 0.000000 0.000000
-29.873280 87.085335 0.300000 0.000000 0.000000 1.000000 0.222222 1.000000
-25.874264 87.174126 0.300000 0.000000 0.000000 1.000000 0.222222 0.000000
-29.633011 75.910278 0.300000 0.000000 0.000000 1.000000 0.333333 1.000000
-25.633934 75.996216 0.300000 0.000000 0.000000 1.000000 0.333333 0.000000
-29.417570 65.880409 0.300000 0.000000 0.000000 1.000000 0.444444 1.000000
-25.418493 65.966316 0.300000 0.000000 0.000000 1.000000 0.444444 0.000000
-28.878977 40.811680 0.300000 0.000000 0.000000 1.000000 0.555556 1.000000
-24.879881 40.896740 0.300000 0.000000 0.000000 1.000000 0.555556 0.000000
-28.406662 18.380913 0.300000 0.000000 0.000000 1.000000 0.666667 1.000000
-24.407562 18.465752 0.300000 0.000000 0.000000 1.000000 0.666667 0.000000
-26.865410 -53.731335 0.300000 0.000000 0.000000 1.000000 0.777778 1.000000
-22.866287 -53.647541 0.300000 0.000000 0.000000 1.000000 0.777778 0.000000
-26.832254 -55.345940 0.300000 0.000000 0.000000 1.000000 0.888889 1.000000
-22.833151 -55.261208 0.300000 0.000000 0.000000 1.000000 0.888889 0.000000
-26.633350 -64.453178 0.300000 0.000000 0.000000 1.000000 1.000000 1.000000
-22.634304 -64.365837 0.300000 0.000000 0.000000 1.000000 1.000000 0.000000
-84.450935 -37.930000 0.300000 0.000000 0.000000 1.000000 0.000000 1.000000
-96.228889 -38.052311 0.300000 0.000000 0.000000 1.000000 0.166667 1.000000
-96.185356 -42.052074 0.300000 0.000000 0.000000 1.000000 0.166667 0.000000
-84.409401 -41.929787 0.300000 0.000000 0.000000 1.000000 0.000000 0.000000
-115.762115 -38.274651 0.300000 0.000000 0.000000 1.000000 0.333333 1.000000
-115.720795 -42.274437 0.300000 0.000000 0.000000 1.000000 0.333333 0.000000
-118.513695 -38.300182 0.300000 0.000000 0.000000 1.000000 0.500000 1.000000
-117.759575 -42.293354 0.300000 0.000000 0.000000 1.000000 0.500000 0.000000
-123.739685 -40.291321 0.300000 0.000000 0.000000 1.000000 0.666667 1.000000
-122.992844 -44.287270 0.300000 0.000000 0.000000 1.000000 0.666667 0.000000
-141.510941 -40.389179 0.300000 0.000000 0.000000 1.000000 0.833333 1.000000
-141.488998 -44.389118 0.300000 0.000000 0.000000 1.000000 0.833333 0.000000
-169.913177 -40.544403 0.300000 0.000000 0.000000 1.000000 1.000000 1.000000
-169.891327 -44.544342 0.300000 0.000000 0.000000 1.000000 1.000000 0.000000
87.197037 219.208557 0.300000 0.000000 0.000000 1.000000 0.000000 1.000000
87.536911 209.369064 0.300000 0.000000 0.000000 1.000000 0.083333 1.000000
91.534607 209.504868 0.300000 0.000000 0.000000 1.000000 0.083333 0.000000
91.194656 219.346649 0.300000 0.000000 0.000000 1.000000 0.000000 0.000000
88.498497 180.574692 0.300000 0.000000 0.000000 1.000000 0.166667 1.000000
92.496452 180.702560 0.300000 0.000000 0.000000 1.000000 0.166667 0.000000
89.700073 141.277084 0.300000 0.000000 0.000000 1.000000 0.250000 1.000000
93.699280 141.364090 0.300000 0.000000 0.000000 1.000000 0.250000 0.000000
89.932129 123.338593 0.300000 0.000000 0.000000 1.000000 0.333333 1.000000
93.931793 123.390930 0.300000 0.000000 0.000000 1.000000 0.333333 0.000000
90.404991 87.615555 0.300000 0.000000 0.000000 1.000000 0.416667 1.000000
94.404640 87.669128 0.300000 0.000000 0.000000 1.000000 0.416667 0.000000
90.554497 76.581467 0.300000 0.000000 0.000000 1.000000 0.500000 1.000000
94.553780 76.661957 0.300000 0.000000 0.000000 1.000000 0.500000 0.000000
90.795311 67.562714 0.300000 0.000000 0.000000 1.000000 0.583333 1.000000
94.793892 67.669235 0.300000 0.000000 0.000000 1.000000 0.583333 0.000000
91.782028 30.437681 0.300000 0.000000 0.000000 1.000000 0.666667 1.000000
95.780609 30.544188 0.300000 0.000000 0.000000 1.000000 0.666667 0.000000
93.075722 -18.025675 0.300000 0.000000 0.000000 1.000000 0.750000 1.000000
97.073982 -17.907171 0.300000 0.000000 0.000000 1.000000 0.750000 0.000000
94.186943 -52.128937 0.300000 0.000000 0.000000 1.000000 0.833333 1.000000
98.184807 -51.998199 0.300000 0.000000 0.000000 1.000000 0.833333 0.000000
94.294716 -55.412663 0.300000 0.000000 0.000000 1.000000 0.916667 1.000000
98.292595 -55.282322 0.300000 0.000000 0.000000 1.000000 0.916667 0.000000
94.560028 -63.605339 0.300000 0.000000 0.000000 1.000000 1.000000 1.000000
98.557938 -63.475868 0.300000 0.000000 0.000000 1.000000 1.000000 0.000000
37.143902 -20.912893 0.300000 0.000000 0.000000 1.000000 0.000000 1.000000
45.074699 -20.779274 0.300000 0.000000 0.000000 1.000000 0.500000 1.000000
45.008507 -16.779823 0.300000 0.000000 0.000000 1.000000 0.500000 0.000000
37.076519 -16.913462 0.300000 0.000000 0.000000 1.000000 0.000000 0.000000
95.107353 -19.966160 0.300000 0.000000 0.000000 1.000000 1.000000 1.000000
95.042351 -15.966687 0.300000 0.000000 0.000000 1.000000 1.000000 0.000000
-86.302330 46.847694 0.300000 0.000000 0.000000 1.000000 0.000000 1.000000
-77.525215 46.992317 0.300000 0.000000 0.000000 1.000000 0.500000 1.000000
-77.592018 50.991760 0.300000 0.000000 0.000000 1.000000 0.500000 0.000000
-86.368233 50.847153 0.300000 0.000000 0.000000 1.000000 0.000000 0.000000
-50.581482 47.448490 0.300000 0.000000 0.000000 1.000000 1.000000 1.000000
-50.649193 51.447918 0.300000 0.000000 0.000000 1.000000 1.000000 0.000000
36.054268 28.401470 0.300000 0.000000 0.000000 1.000000 0.000000 1.000000
44.259510 28.490576 0.300000 0.000000 0.000000 1.000000 0.500000 1.000000
44.215252 32.490330 0.300000 0.000000 0.000000 1.000000 0.500000 0.000000
36.010834 32.401234 0.300000 0.000000 0.000000 1.000000 0.000000 0.000000
78.852829 28.880499 0.300000 0.000000 0.000000 1.000000 1.000000 1.000000
78.807739 32.880245 0.300000 0.000000 0.000000 1.000000 1.000000 0.000000
14.499257 20.686966 0.300000 0.000000 0.000000 1.000000 0.000000 1.000000
23.200111 20.787163 0.300000 0.000000 0.000000 1.000000 0.500000 1.000000
23.156555 24.786926 0.300000 0.000000 0.000000 1.000000 0.500000 0.000000
14.453198 24.686703 0.300000 0.000000 0.000000 1.000000 0.000000 0.000000
36.218868 20.920788 0.300000 0.000000 0.000000 1.000000 1.000000 1.000000
36.177814 24.920578 0.300000 0.000000 0.000000 1.000000 1.000000 0.000000
-177.017990 -70.355179 0.300000 0.000000 0.000000 1.000000 0.000000 1.000000
-172.129440 -70.299561 0.300000 0.000000 0.000000 1.000000 0.200000 1.000000
-172.234482 -62.300236 0.300000 0.000000 0.000000 1.000000 0.200000 0.000000
-177.108994 -62.355698 0.300000 0.000000 0.000000 1.000000 0.000000 0.000000
-163.911392 -70.177231 0.300000 0.000000 0.000000 1.000000 0.400000 1.000000
-164.026077 -62.178055 0.300000 0.000000 0.000000 1.000000 0.400000 0.000000
-140.533676 -69.854935 0.300000 0.000000 0.000000 1.000000 0.600000 1.000000
-140.643875 -61.855698 0.300000 0.000000 0.000000 1.000000 0.600000 0.000000
-95.311859 -69.232246 0.300000 0.000000 0.000000 1.000000 0.800000 1.000000
-95.428940 -61.233101 0.300000 0.000000 0.000000 1.000000 0.800000 0.000000
-83.829750 -69.054230 0.300000 0.000000 0.000000 1.000000 1.000000 1.000000
-83.953773 -61.055191 0.300000 0.000000 0.000000 1.000000 1.000000 0.000000
-83.845985 -69.054451 0.300000 0.000000 0.000000 1.000000 0.000000 1.000000
-76.073288 -68.965492 0.300000 0.000000 0.000000 1.000000 0.333333 1.000000
-76.162277 -60.965984 0.300000 0.000000 0.000000 1.000000 0.333333 0.000000
-83.937538 -61.054974 0.300000 0.000000 0.000000 1.000000 0.000000 0.000000
-24.590017 -68.409271 0.300000 0.000000 0.000000 1.000000 0.666667 1.000000
-24.677637 -60.409748 0.300000 0.000000 0.000000 1.000000 0.666667 0.000000
11.504044 -68.008545 0.300000 0.000000 0.000000 1.000000 1.000000 1.000000
11.415230 -60.009037 0.300000 0.000000 0.000000 1.000000 1.000000 0.000000
-87.890594 -65.151321 0.300000 0.000000 0.000000 1.000000 0.000000 1.000000
-87.642097 -75.436523 0.300000 0.000000 0.000000 1.000000 0.250000 1.000000
-79.644402 -75.244736 0.300000 0.000000 0.000000 1.000000 0.250000 0.000000
-79.892929 -64.958099 0.300000 0.000000 0.000000 1.000000 0.000000 0.000000
-86.706047 -114.764923 0.300000 0.000000 0.000000 1.000000 0.500000 1.000000
-78.708305 -114.574722 0.300000 0.000000 0.000000 1.000000 0.500000 0.000000
-86.126183 -139.165970 0.300000 0.000000 0.000000 1.000000 0.750000 1.000000
-78.128441 -138.976151 0.300000 0.000000 0.000000 1.000000 0.750000 0.000000
-85.355782 -171.671127 0.300000 0.000000 0.000000 1.000000 1.000000 1.000000
-77.358025 -171.481583 0.300000 0.000000 0.000000 1.000000 1.000000 0.000000
76.378075 -67.707695 0.300000 0.000000 0.000000 1.000000 0.000000 1.000000
96.574661 -67.540611 0.300000 0.000000 0.000000 1.000000 0.333333 1.000000
96.543304 -59.540596 0.300000 0.000000 0.000000 1.000000 0.333333 0.000000
76.311897 -59.707966 0.300000 0.000000 0.000000 1.000000 0.000000 0.000000
146.184937 -67.562035 0.300000 0.000000 0.000000 1.000000 0.666667 1.000000
146.105103 -59.562000 0.300000 0.000000 0.000000 1.000000 0.666667 0.000000
154.970200 -67.382896 0.300000 0.000000 0.000000 1.000000 1.000000 1.000000
154.807114 -59.384556 0.300000 0.000000 0.000000 1.000000 1.000000 0.000000
-90.897636 75.335312 0.300000 0.000000 0.000000 1.000000 0.000000 1.000000
-90.491753 56.031254 0.300000 0.000000 0.000000 1.000000 0.166667 1.000000
-82.493568 56.201923 0.300000 0.000000 0.000000 1.000000 0.166667 0.000000
-82.899406 75.503479 0.300000 0.000000 0.000000 1.000000 0.000000 0.000000
-90.334351 48.761120 0.300000 0.000000 0.000000 1.000000 0.333333 1.000000
-82.336212 48.933727 0.300000 0.000000 0.000000 1.000000 0.333333 0.000000
-89.307259 1.016681 0.300000 0.000000 0.000000 1.000000 0.500000 1.000000
-81.309105 1.188283 0.300000 0.000000 0.000000 1.000000 0.500000 0.000000
-88.429245 -40.015701 0.300000 0.000000 0.000000 1.000000 0.666667 1.000000
-80.431091 -39.844086 0.300000 0.000000 0.000000 1.000000 0.666667 0.000000
-88.131058 -53.874832 0.300000 0.000000 0.000000 1.000000 0.833333 1.000000
-80.132889 -53.703514 0.300000 0.000000 0.000000 1.000000 0.833333 0.000000
-87.890854 -65.139984 0.300000 0.000000 0.000000 1.000000 1.000000 1.000000
-79.892670 -64.969437 0.300000 0.000000 0.000000 1.000000 1.000000 0.000000
37.941944 -67.964172 0.300000 0.000000 0.000000 1.000000 0.000000 1.000000
45.898254 -67.975250 0.300000 0.000000 0.000000 1.000000 1.000000 1.000000
45.909393 -59.975258 0.300000 0.000000 0.000000 1.000000 1.000000 0.000000
37.953083 -59.964176 0.300000 0.000000 0.000000 1.000000 0.000000 0.000000
41.946823 -63.889870 0.300000 0.000000 0.000000 1.000000 0.000000 1.000000
41.747860 -53.180916 0.300000 0.000000 0.000000 1.000000 0.166667 1.000000
33.749241 -53.329559 0.300000 0.000000 0.000000 1.000000 0.166667 0.000000
33.948204 -64.038475 0.300000 0.000000 0.000000 1.000000 0.000000 0.000000
41.109402 -18.832424 0.300000 0.000000 0.000000 1.000000 0.333333 1.000000
33.111019 -18.993931 0.300000 0.000000 0.000000 1.000000 0.333333 0.000000
40.197376 23.008581 0.300000 0.000000 0.000000 1.000000 0.500000 1.000000
32.199306 22.832785 0.300000 0.000000 0.000000 1.000000 0.500000 0.000000
40.031582 30.489380 0.300000 0.000000 0.000000 1.000000 0.666667 1.000000
32.033520 30.313324 0.300000 0.000000 0.000000 1.000000 0.666667 0.000000
39.235779 66.890823 0.300000 0.000000 0.000000 1.000000 0.833333 1.000000
31.237717 66.714813 0.300000 0.000000 0.000000 1.000000 0.833333 0.000000
39.020241 76.620728 0.300000 0.000000 0.000000 1.000000 1.000000 1.000000
31.022202 76.443558 0.300000 0.000000 0.000000 1.000000 1.000000 0.000000
11.465887 -68.008781 0.300000 0.000000 0.000000 1.000000 0.000000 1.000000
25.738045 -67.986481 0.300000 0.000000 0.000000 1.000000 0.500000 1.000000
25.724487 -59.986496 0.300000 0.000000 0.000000 1.000000 0.500000 0.000000
11.453386 -60.008793 0.300000 0.000000 0.000000 1.000000 0.000000 0.000000
37.954819 -67.964165 0.300000 0.000000 0.000000 1.000000 1.000000 1.000000
37.940208 -59.964180 0.300000 0.000000 0.000000 1.000000 1.000000 0.000000
42.311317 -81.109161 0.300000 0.000000 0.000000 1.000000 0.000000 1.000000
42.178726 -75.033142 0.300000 0.000000 0.000000 1.000000 0.500000 1.000000
34.180542 -75.203629 0.300000 0.000000 0.000000 1.000000 0.500000 0.000000
34.313225 -81.283691 0.300000 0.000000 0.000000 1.000000 0.000000 0.000000
41.946648 -63.880951 0.300000 0.000000 0.000000 1.000000 1.000000 1.000000
33.948380 -64.047394 0.300000 0.000000 0.000000 1.000000 1.000000 0.000000
45.938568 -67.975105 0.300000 0.000000 0.000000 1.000000 0.000000 1.000000
74.161285 -67.729942 0.300000 0.000000 0.000000 1.000000 0.500000 1.000000
74.086411 -59.730289 0.300000 0.000000 0.000000 1.000000 0.500000 0.000000
45.869080 -59.975407 0.300000 0.000000 0.000000 1.000000 0.000000 0.000000
76.385117 -67.707626 0.300000 0.000000 0.000000 1.000000 1.000000 1.000000
76.304855 -59.708031 0.300000 0.000000 0.000000 1.000000 1.000000 0.000000
-176.441925 -54.809746 0.300000 0.000000 0.000000 1.000000 0.000000 1.000000
-141.050980 -54.821667 0.300000 0.000000 0.000000 1.000000 0.500000 1.000000
-141.054306 -52.821667 0.300000 0.000000 0.000000 1.000000 0.500000 0.000000
-176.441254 -52.809746 0.300000 0.000000 0.000000 1.000000 0.000000 0.000000
-95.847260 -54.655434 0.300000 0.000000 0.000000 1.000000 1.000000 1.000000
-95.854614 -52.655449 0.300000 0.000000 0.000000 1.000000 1.000000 0.000000
-98.374779 5.274713 0.300000 0.000000 0.000000 1.000000 0.000000 1.000000
-98.267082 0.910295 0.300000 0.000000 0.000000 1.000000 0.500000 1.000000
-96.267723 0.961018 0.300000 0.000000 0.000000 1.000000 0.500000 0.000000
-96.375389 5.324051 0.300000 0.000000 0.000000 1.000000 0.000000 0.000000
-98.101402 -5.446743 0.300000 0.000000 0.000000 1.000000 1.000000 1.000000
-96.102074 -5.394635 0.300000 0.000000 0.000000 1.000000 1.000000 0.000000
-80.593620 87.037262 0.300000 0.000000 0.000000 1.000000 0.000000 1.000000
-79.641113 75.420944 0.300000 0.000000 0.000000 1.000000 0.500000 1.000000
-77.646912 75.573502 0.300000 0.000000 0.000000 1.000000 0.500000 0.000000
-78.600304 87.200714 0.300000 0.000000 0.000000 1.000000 0.000000 0.000000
-79.127747 68.190628 0.300000 0.000000 0.000000 1.000000 1.000000 1.000000
-77.132767 68.332275 0.300000 0.000000 0.000000 1.000000 1.000000 0.000000
-79.129181 68.215157 0.300000 0.000000 0.000000 1.000000 0.000000 1.000000
-78.988564 65.181091 0.300000 0.000000 0.000000 1.000000 0.500000 1.000000
-76.990242 65.263763 0.300000 0.000000 0.000000 1.000000 0.500000 0.000000
-77.131332 68.307747 0.300000 0.000000 0.000000 1.000000 0.000000 0.000000
-78.673904 56.536518 0.300000 0.000000 0.000000 1.000000 1.000000 1.000000
-76.675232 56.609272 0.300000 0.000000 0.000000 1.000000 1.000000 0.000000
-96.850075 -53.696911 0.300000 0.000000 0.000000 1.000000 0.000000 1.000000
-96.369522 -65.274574 0.300000 0.000000 0.000000 1.000000 0.500000 1.000000
-94.371277 -65.190773 0.300000 0.000000 0.000000 1.000000 0.500000 0.000000
-94.851799 -53.613972 0.300000 0.000000 0.000000 1.000000 0.000000 0.000000
-95.946960 -75.249237 0.300000 0.000000 0.000000 1.000000 1.000000 1.000000
-93.948746 -75.164581 0.300000 0.000000 0.000000 1.000000 1.000000 0.000000
-78.674454 56.557602 0.300000 0.000000 0.000000 1.000000 0.000000 1.000000
-78.558502 48.976707 0.300000 0.000000 0.000000 1.000000 0.500000 1.000000
-76.558731 49.007370 0.300000 0.000000 0.000000 1.000000 0.500000 0.000000
-76.674683 56.588188 0.300000 0.000000 0.000000 1.000000 0.000000 0.000000
-76.976654 -53.915958 0.300000 0.000000 0.000000 1.000000 1.000000 1.000000
-74.976883 -53.885212 0.300000 0.000000 0.000000 1.000000 1.000000 0.000000
-75.972641 -54.900578 0.300000 0.000000 0.000000 1.000000 0.000000 1.000000
-24.860685 -54.689426 0.300000 0.000000 0.000000 1.000000 0.500000 1.000000
-24.871012 -52.689449 0.300000 0.000000 0.000000 1.000000 0.500000 0.000000
-75.980896 -52.900593 0.300000 0.000000 0.000000 1.000000 0.000000 0.000000
25.455637 -54.377724 0.300000 0.000000 0.000000 1.000000 1.000000 1.000000
25.443247 -52.377762 0.300000 0.000000 0.000000 1.000000 1.000000 0.000000
27.021034 -74.991959 0.300000 0.000000 0.000000 1.000000 0.000000 1.000000
26.730917 -63.960068 0.300000 0.000000 0.000000 1.000000 0.500000 1.000000
24.731615 -64.012909 0.300000 0.000000 0.000000 1.000000 0.500000 0.000000
25.021725 -75.044540 0.300000 0.000000 0.000000 1.000000 0.000000 0.000000
26.449089 -53.351189 0.300000 0.000000 0.000000 1.000000 1.000000 1.000000
24.449795 -53.404297 0.300000 0.000000 0.000000 1.000000 1.000000 0.000000
25.459402 -54.377693 0.300000 0.000000 0.000000 1.000000 0.000000 1.000000
37.758492 -54.255188 0.300000 0.000000 0.000000 1.000000 0.500000 1.000000
37.738609 -52.255287 0.300000 0.000000 0.000000 1.000000 0.500000 0.000000
25.439482 -52.377792 0.300000 0.000000 0.000000 1.000000 0.000000 0.000000
45.615314 -54.177216 0.300000 0.000000 0.000000 1.000000 1.000000 1.000000
45.595470 -52.177315 0.300000 0.000000 0.000000 1.000000 1.000000 0.000000
44.605774 -53.204891 0.300000 0.000000 0.000000 1.000000 0.000000 1.000000
44.904202 -64.002747 0.300000 0.000000 0.000000 1.000000 0.500000 1.000000
46.903446 -63.947765 0.300000 0.000000 0.000000 1.000000 0.500000 0.000000
46.605011 -53.149639 0.300000 0.000000 0.000000 1.000000 0.000000 0.000000
45.210918 -75.212479 0.300000 0.000000 0.000000 1.000000 1.000000 1.000000
47.210171 -75.157776 0.300000 0.000000 0.000000 1.000000 1.000000 0.000000
45.627407 -54.177021 0.300000 0.000000 0.000000 1.000000 0.000000 1.000000
96.207924 -53.063324 0.300000 0.000000 0.000000 1.000000 0.500000 1.000000
96.163826 -51.063812 0.300000 0.000000 0.000000 1.000000 0.500000 0.000000
45.583378 -52.177509 0.300000 0.000000 0.000000 1.000000 0.000000 0.000000
145.636414 -51.971554 0.300000 0.000000 0.000000 1.000000 1.000000 1.000000
145.592255 -49.972042 0.300000 0.000000 0.000000 1.000000 1.000000 0.000000
-77.975540 64.222527 0.300000 0.000000 0.000000 1.000000 0.000000 1.000000
-27.403988 64.923462 0.300000 0.000000 0.000000 1.000000 0.500000 1.000000
-27.432076 66.923264 0.300000 0.000000 0.000000 1.000000 0.500000 0.000000
-78.003265 66.222328 0.300000 0.000000 0.000000 1.000000 0.000000 0.000000
21.882965 65.624756 0.300000 0.000000 0.000000 1.000000 1.000000 1.000000
21.854511 67.624557 0.300000 0.000000 0.000000 1.000000 1.000000 0.000000
20.860388 87.128929 0.300000 0.000000 0.000000 1.000000 0.000000 1.000000
20.868710 76.464912 0.300000 0.000000 0.000000 1.000000 0.500000 1.000000
22.868710 76.465691 0.300000 0.000000 0.000000 1.000000 0.500000 0.000000
22.860388 87.130486 0.300000 0.000000 0.000000 1.000000 0.000000 0.000000
20.868738 66.624657 0.300000 0.000000 0.000000 1.000000 1.000000 1.000000
22.868738 66.624657 0.300000 0.000000 0.000000 1.000000 1.000000 0.000000
41.589119 87.089378 0.300000 0.000000 0.000000 1.000000 0.000000 1.000000
42.136173 76.491653 0.300000 0.000000 0.000000 1.000000 0.500000 1.000000
44.133503 76.594986 0.300000 0.000000 0.000000 1.000000 0.500000 0.000000
43.586456 87.192482 0.300000 0.000000 0.000000 1.000000 0.000000 0.000000
42.641788 66.739952 0.300000 0.000000 0.000000 1.000000 1.000000 1.000000
44.639103 66.843513 0.300000 0.000000 0.000000 1.000000 1.000000 0.000000
43.657211 65.791870 0.300000 0.000000 0.000000 1.000000 0.000000 1.000000
92.810120 66.616096 0.300000 0.000000 0.000000 1.000000 0.500000 1.000000
92.779083 68.615852 0.300000 0.000000 0.000000 1.000000 0.500000 0.000000
43.623680 67.791595 0.300000 0.000000 0.000000 1.000000 0.000000 0.000000
144.358139 67.351639 0.300000 0.000000 0.000000 1.000000 1.000000 1.000000
144.329605 69.351440 0.300000 0.000000 0.000000 1.000000 1.000000 0.000000
21.882065 65.624748 0.300000 0.000000 0.000000 1.000000 0.000000 1.000000
35.242752 65.802811 0.300000 0.000000 0.000000 1.000000 0.500000 1.000000
35.230743 67.802826 0.300000 0.000000 0.000000 1.000000 0.500000 0.000000
21.855412 67.624565 0.300000 0.000000 0.000000 1.000000 0.000000 0.000000
43.639126 65.791733 0.300000 0.000000 0.000000 1.000000 1.000000 1.000000
43.641766 67.791733 0.300000 0.000000 0.000000 1.000000 1.000000 0.000000
20.869184 66.594795 0.300000 0.000000 0.000000 1.000000 0.000000 1.000000
22.178778 22.757212 0.300000 0.000000 0.000000 1.000000 0.500000 1.000000
24.177889 22.816877 0.300000 0.000000 0.000000 1.000000 0.500000 0.000000
22.868292 66.654518 0.300000 0.000000 0.000000 1.000000 0.000000 0.000000
24.449886 -53.407547 0.300000 0.000000 0.000000 1.000000 1.000000 1.000000
26.448997 -53.347939 0.300000 0.000000 0.000000 1.000000 1.000000 0.000000
42.640579 66.775291 0.300000 0.000000 0.000000 1.000000 0.000000 1.000000
43.237514 30.474073 0.300000 0.000000 0.000000 1.000000 0.333333 1.000000
45.237247 30.506834 0.300000 0.000000 0.000000 1.000000 0.333333 0.000000
44.640312 66.808174 0.300000 0.000000 0.000000 1.000000 0.000000 0.000000
44.041737 -18.795902 0.300000 0.000000 0.000000 1.000000 0.666667 1.000000
46.041470 -18.763195 0.300000 0.000000 0.000000 1.000000 0.666667 0.000000
44.605526 -53.193653 0.300000 0.000000 0.000000 1.000000 1.000000 1.000000
46.605259 -53.160877 0.300000 0.000000 0.000000 1.000000 1.000000 0.000000
-94.851280 -53.629265 0.300000 0.000000 0.000000 1.000000 0.000000 1.000000
-95.207458 -40.026192 0.300000 0.000000 0.000000 1.000000 0.500000 1.000000
-97.206787 -40.078194 0.300000 0.000000 0.000000 1.000000 0.500000 0.000000
-96.850594 -53.681618 0.300000 0.000000 0.000000 1.000000 0.000000 0.000000
-96.102074 -5.394865 0.300000 0.000000 0.000000 1.000000 1.000000 1.000000
-98.101402 -5.446513 0.300000 0.000000 0.000000 1.000000 1.000000 0.000000
-75.250580 -75.453568 0.300000 0.000000 0.000000 1.000000 0.000000 1.000000
-75.117867 -64.978439 0.300000 0.000000 0.000000 1.000000 0.500000 1.000000
-77.117699 -64.953033 0.300000 0.000000 0.000000 1.000000 0.500000 0.000000
-77.250412 -75.428238 0.300000 0.000000 0.000000 1.000000 0.000000 0.000000
-74.976852 -53.913326 0.300000 0.000000 0.000000 1.000000 1.000000 1.000000
-76.976685 -53.887844 0.300000 0.000000 0.000000 1.000000 1.000000 0.000000
-75.963112 -52.900677 0.300000 0.000000 0.000000 1.000000 0.000000 1.000000
-84.119438 -52.789249 0.300000 0.000000 0.000000 1.000000 0.500000 1.000000
-84.144508 -54.789097 0.300000 0.000000 0.000000 1.000000 0.500000 0.000000
-75.990425 -54.900494 0.300000 0.000000 0.000000 1.000000 0.000000 0.000000
-95.839523 -52.655506 0.300000 0.000000 0.000000 1.000000 1.000000 1.000000
-95.862350 -54.655376 0.300000 0.000000 0.000000 1.000000 1.000000 0.000000
-100.346092 55.409554 0.300000 0.000000 0.000000 1.000000 0.000000 1.000000
-98.374313 5.260094 0.300000 0.000000 0.000000 1.000000 1.000000 1.000000
-96.375854 5.338669 0.300000 0.000000 0.000000 1.000000 1.000000 0.000000
-98.347633 55.488129 0.300000 0.000000 0.000000 1.000000 0.000000 0.000000
-99.294983 54.450188 0.300000 0.000000 0.000000 1.000000 0.000000 1.000000
-86.440880 55.117931 0.300000 0.000000 0.000000 1.000000 0.500000 1.000000
-86.544441 57.115246 0.300000 0.000000 0.000000 1.000000 0.500000 0.000000
-99.398743 56.447495 0.300000 0.000000 0.000000 1.000000 0.000000 0.000000
-77.622894 55.574230 0.300000 0.000000 0.000000 1.000000 1.000000 1.000000
-77.726242 57.571560 0.300000 0.000000 0.000000 1.000000 1.000000 0.000000
4 0 1 2 3
4 1 4 5 2
4 4 6 7 5
4 6 0 3 7
4 2 5 7 3
4 8 9 10 11
4 9 12 13 10
4 12 14 15 13
4 14 8 11 15
4 10 13 15 11
4 16 17 18 19
4 17 20 21 18
4 20 22 23 21
4 22 16 19 23
4 18 21 23 19
4 24 25 26 27
4 25 28 29 26
4 28 30 31 29
4 30 24 27 31
4 26 29 31 27
4 32 33 34 35
4 33 36 37 34
4 36 38 39 37
4 38 32 35 39
4 34 37 39 35
4 40 41 42 43
4 41 44 45 42
4 44 46 47 45
4 46 48 49 47
4 48 50 51 49
4 50 40 43 51
6 42 45 47 49 51 43
4 52 53 54 55
4 53 56 57 54
4 56 58 59 57
4 58 52 55 59
4 54 57 59 55
4 60 61 62 63
4 61 64 65 62
4 64 66 67 65
4 66 60 63 67
4 62 65 67 63
4 68 69 70 71
4 69 72 73 70
4 72 74 75 73
4 74 76 77 75
4 76 78 79 77
4 78 68 71 79
6 70 73 75 77 79 71
4 80 81 82 83
4 81 84 85 82
4 84 86 87 85
4 86 80 83 87
4 82 85 87 83
4 88 89 90 91
4 89 92 93 90
4 92 94 95 93
4 94 88 91 95
4 90 93 95 91
4 96 97 98 99
4 97 100 101 98
4 100 102 103 101
4 102 96 99 103
4 98 101 103 99
4 104 105 106 107
4 105 108 109 106
4 108 110 111 109
4 110 112 113 111
4 112 114 115 113
4 114 104 107 115
6 106 109 111 113 115 107
4 116 117 118 119
4 117 120 121 118
4 120 122 123 121
4 122 116 119 123
4 118 121 123 119
4 124 125 126 127
4 125 128 129 126
4 128 130 131 129
4 130 124 127 131
4 126 129 131 127
4 132 133 134 135
4 133 136 137 134
4 136 138 139 137
4 138 132 135 139
4 134 137 139 135
4 140 141 142 143
4 141 144 145 142
4 144 146 147 145
4 146 140 143 147
4 142 145 147 143
4 148 149 150 151
4 149 152 153 150
4 152 154 155 153
4 154 156 157 155
4 156 158 159 157
4 158 148 151 159
6 150 153 155 157 159 151
4 160 161 162 163
4 161 164 165 162
4 164 166 167 165
4 166 160 163 167
4 162 165 167 163
4 168 169 170 171
4 169 172 173 170
4 172 174 175 173
4 174 176 177 175
4 176 178 179 177
4 178 168 171 179
6 170 173 175 177 179 171
4 180 181 182 183
4 181 184 185 182
4 184 186 187 185
4 186 188 189 187
4 188 190 191 189
4 190 180 183 191
6 182 185 187 189 191 183
4 192 193 194 195
4 193 196 197 194
4 196 198 199 197
4 198 192 195 199
4 194 197 199 195
4 200 201 202 203
4 201 204 205 202
4 204 206 207 205
4 206 200 203 207
4 202 205 207 203
4 208 209 210 211
4 209 212 213 210
4 214 215 216 217
4 215 218 219 216
4 218 220 221 219
4 220 222 223 221
4 222 224 225 223
4 224 226 227 225
4 226 228 229 227
4 228 230 231 229
4 230 232 233 231
4 234 235 236 237
4 235 238 239 236
4 238 240 241 239
4 240 242 243 241
4 242 244 245 243
4 244 246 247 245
4 248 249 250 251
4 249 252 253 250
4 252 254 255 253
4 254 256 257 255
4 256 258 259 257
4 258 260 261 259
4 260 262 263 261
4 262 264 265 263
4 264 266 267 265
4 266 268 269 267
4 268 270 271 269
4 270 272 273 271
4 274 275 276 277
4 275 278 279 276
4 280 281 282 283
4 281 284 285 282
4 286 287 288 289
4 287 290 291 288
4 292 293 294 295
4 293 296 297 294
4 298 299 300 301
4 299 302 303 300
4 302 304 305 303
4 304 306 307 305
4 306 308 309 307
4 310 311 312 313
4 311 314 315 312
4 314 316 317 315
4 318 319 320 321
4 319 322 323 320
4 322 324 325 323
4 324 326 327 325
4 328 329 330 331
4 329 332 333 330
4 332 334 335 333
4 336 337 338 339
4 337 340 341 338
4 340 342 343 341
4 342 344 345 343
4 344 346 347 345
4 346 348 349 347
4 350 351 352 353
4 354 355 356 357
4 355 358 359 356
4 358 360 361 359
4 360 362 363 361
4 362 364 365 363
4 364 366 367 365
4 368 369 370 371
4 369 372 373 370
4 374 375 376 377
4 375 378 379 376
4 380 381 382 383
4 381 384 385 382
4 386 387 388 389
4 387 390 391 388
4 392 393 394 395
4 393 396 397 394
4 398 399 400 401
4 399 402 403 400
4 404 405 406 407
4 405 408 409 406
4 410 411 412 413
4 411 414 415 412
4 416 417 418 419
4 417 420 421 418
4 422 423 424 425
4 423 426 427 424
4 428 429 430 431
4 429 432 433 430
4 434 435 436 437
4 435 438 439 436
4 440 441 442 443
4 441 444 445 442
4 446 447 448 449
4 447 450 451 448
4 452 453 454 455
4 453 456 457 454
4 458 459 460 461
4 459 462 463 460
4 464 465 466 467
4 465 468 469 466
4 470 471 472 473
4 471 474 475 472
4 476 477 478 479
4 477 480 481 478
4 482 483 484 485
4 483 486 487 484
4 488 489 490 491
4 489 492 493 490
4 492 494 495 493
4 496 497 498 499
4 497 500 501 498
4 502 503 504 505
4 503 506 507 504
4 508 509 510 511
4 509 512 513 510
4 514 515 516 517
4 518 519 520 521
4 519 522 523 520
